<?xml version="1.0" encoding="utf-8"?>
<!-- Svg Vector Icons : http://www.onlinewebfonts.com/icon -->
<!DOCTYPE svg PUBLIC "-//W3C//DTD SVG 1.1//EN" "http://www.w3.org/Graphics/SVG/1.1/DTD/svg11.dtd">
<svg version="1.1" xmlns="http://www.w3.org/2000/svg" xmlns:xlink="http://www.w3.org/1999/xlink" x="0px" y="0px" viewBox="0 0 256 256" enable-background="new 0 0 256 256" xml:space="preserve">
<metadata> Svg Vector Icons : http://www.onlinewebfonts.com/icon </metadata>
<g><g><g><path fill="#000000" d="M78.2,133.7l42.1,42.6l-68.9,26L78.2,133.7z M245.3,57.7v175c0,7.1-5.8,12.9-12.9,12.9H22.9c-7.1,0-12.9-5.8-12.9-12.9V23.3c0-7.1,5.8-12.9,12.9-12.9h209.5c7.1,0,12.9,5.8,12.9,12.9v33L246,57L245.3,57.7z M219.5,82.2l-91.7,87.2L109.7,151L219.5,46.7V36.2h-2.2l-114,108.4l-18.1-18.3l94.7-90H35.8v183.6h183.6L219.5,82.2L219.5,82.2z"/></g><g></g><g></g><g></g><g></g><g></g><g></g><g></g><g></g><g></g><g></g><g></g><g></g><g></g><g></g><g></g></g></g>
</svg>