<svg width="30" height="30" viewBox="0 0 30 30" fill="none" xmlns="http://www.w3.org/2000/svg">
<g clip-path="url(#clip0_120_2)">
<rect width="30" height="30" fill="#2F3C7E"/>
<path d="M12.604 19L9.948 14.44H8.188V19H6.732V7.848H10.332C11.1747 7.848 11.884 7.992 12.46 8.28C13.0467 8.568 13.484 8.95733 13.772 9.448C14.06 9.93867 14.204 10.4987 14.204 11.128C14.204 11.896 13.98 12.5733 13.532 13.16C13.0947 13.7467 12.4333 14.136 11.548 14.328L14.348 19H12.604ZM8.188 13.272H10.332C11.1213 13.272 11.7133 13.08 12.108 12.696C12.5027 12.3013 12.7 11.7787 12.7 11.128C12.7 10.4667 12.5027 9.95467 12.108 9.592C11.724 9.22933 11.132 9.048 10.332 9.048H8.188V13.272ZM20.0024 19.112C19.2664 19.112 18.605 18.984 18.0184 18.728C17.4424 18.4613 16.989 18.0987 16.6584 17.64C16.3277 17.1707 16.157 16.632 16.1464 16.024H17.6984C17.7517 16.5467 17.965 16.9893 18.3384 17.352C18.7224 17.704 19.277 17.88 20.0024 17.88C20.6957 17.88 21.2397 17.7093 21.6344 17.368C22.0397 17.016 22.2424 16.568 22.2424 16.024C22.2424 15.5973 22.125 15.2507 21.8904 14.984C21.6557 14.7173 21.3624 14.5147 21.0104 14.376C20.6584 14.2373 20.1837 14.088 19.5864 13.928C18.8504 13.736 18.2584 13.544 17.8104 13.352C17.373 13.16 16.9944 12.8613 16.6744 12.456C16.365 12.04 16.2104 11.4853 16.2104 10.792C16.2104 10.184 16.365 9.64533 16.6744 9.176C16.9837 8.70667 17.4157 8.344 17.9704 8.088C18.5357 7.832 19.181 7.704 19.9064 7.704C20.9517 7.704 21.805 7.96533 22.4664 8.488C23.1384 9.01067 23.517 9.704 23.6024 10.568H22.0024C21.949 10.1413 21.725 9.768 21.3304 9.448C20.9357 9.11733 20.413 8.952 19.7624 8.952C19.1544 8.952 18.6584 9.112 18.2744 9.432C17.8904 9.74133 17.6984 10.1787 17.6984 10.744C17.6984 11.1493 17.8104 11.48 18.0344 11.736C18.269 11.992 18.5517 12.1893 18.8824 12.328C19.2237 12.456 19.6984 12.6053 20.3064 12.776C21.0424 12.9787 21.6344 13.1813 22.0824 13.384C22.5304 13.576 22.9144 13.88 23.2344 14.296C23.5544 14.7013 23.7144 15.256 23.7144 15.96C23.7144 16.504 23.5704 17.016 23.2824 17.496C22.9944 17.976 22.5677 18.3653 22.0024 18.664C21.437 18.9627 20.7704 19.112 20.0024 19.112Z" fill="#FBEAEB"/>
<line x1="6.7998" y1="22.8" x2="23.7998" y2="22.8" stroke="#FBEAEB" stroke-width="0.4"/>
<rect x="1" y="1" width="28" height="28" stroke="#FBEAEB"/>
</g>
<defs>
<clipPath id="clip0_120_2">
<rect width="30" height="30" fill="white"/>
</clipPath>
</defs>
</svg>
