<svg width="154" height="33" viewBox="0 0 154 33" fill="none" xmlns="http://www.w3.org/2000/svg">
<path d="M4.688 9.024C5.264 8.08533 6.01067 7.34933 6.928 6.816C7.86667 6.28267 8.93333 6.016 10.128 6.016V10.72H8.944C7.536 10.72 6.46933 11.0507 5.744 11.712C5.04 12.3733 4.688 13.5253 4.688 15.168V24H0.208V6.272H4.688V9.024ZM29.6255 14.752C29.6255 15.392 29.5828 15.968 29.4975 16.48H16.5375C16.6442 17.76 17.0922 18.7627 17.8815 19.488C18.6708 20.2133 19.6415 20.576 20.7935 20.576C22.4575 20.576 23.6415 19.8613 24.3455 18.432H29.1775C28.6655 20.1387 27.6842 21.5467 26.2335 22.656C24.7828 23.744 23.0015 24.288 20.8895 24.288C19.1828 24.288 17.6468 23.9147 16.2815 23.168C14.9375 22.4 13.8815 21.3227 13.1135 19.936C12.3668 18.5493 11.9935 16.9493 11.9935 15.136C11.9935 13.3013 12.3668 11.6907 13.1135 10.304C13.8602 8.91733 14.9055 7.85067 16.2495 7.104C17.5935 6.35733 19.1402 5.984 20.8895 5.984C22.5748 5.984 24.0788 6.34667 25.4015 7.072C26.7455 7.79733 27.7802 8.832 28.5055 10.176C29.2522 11.4987 29.6255 13.024 29.6255 14.752ZM24.9855 13.472C24.9642 12.32 24.5482 11.4027 23.7375 10.72C22.9268 10.016 21.9348 9.664 20.7615 9.664C19.6522 9.664 18.7135 10.0053 17.9455 10.688C17.1988 11.3493 16.7402 12.2773 16.5695 13.472H24.9855ZM31.7435 15.072C31.7435 13.28 32.0955 11.6907 32.7995 10.304C33.5248 8.91733 34.4955 7.85067 35.7115 7.104C36.9488 6.35733 38.3248 5.984 39.8395 5.984C41.1622 5.984 42.3142 6.25067 43.2955 6.784C44.2982 7.31733 45.0982 7.98933 45.6955 8.8V6.272H50.2075V24H45.6955V21.408C45.1195 22.24 44.3195 22.9333 43.2955 23.488C42.2928 24.0213 41.1302 24.288 39.8075 24.288C38.3142 24.288 36.9488 23.904 35.7115 23.136C34.4955 22.368 33.5248 21.2907 32.7995 19.904C32.0955 18.496 31.7435 16.8853 31.7435 15.072ZM45.6955 15.136C45.6955 14.048 45.4822 13.12 45.0555 12.352C44.6288 11.5627 44.0528 10.9653 43.3275 10.56C42.6022 10.1333 41.8235 9.92 40.9915 9.92C40.1595 9.92 39.3915 10.1227 38.6875 10.528C37.9835 10.9333 37.4075 11.5307 36.9595 12.32C36.5328 13.088 36.3195 14.0053 36.3195 15.072C36.3195 16.1387 36.5328 17.0773 36.9595 17.888C37.4075 18.6773 37.9835 19.2853 38.6875 19.712C39.4128 20.1387 40.1808 20.352 40.9915 20.352C41.8235 20.352 42.6022 20.1493 43.3275 19.744C44.0528 19.3173 44.6288 18.72 45.0555 17.952C45.4822 17.1627 45.6955 16.224 45.6955 15.136ZM59.063 0.32V24H54.583V0.32H59.063ZM77.8983 24.288C76.4476 24.288 75.1463 24.032 73.9943 23.52C72.8423 22.9867 71.9249 22.272 71.2423 21.376C70.5809 20.48 70.2183 19.488 70.1543 18.4H74.6663C74.7516 19.0827 75.0823 19.648 75.6583 20.096C76.2556 20.544 76.9916 20.768 77.8663 20.768C78.7196 20.768 79.3809 20.5973 79.8503 20.256C80.3409 19.9147 80.5863 19.4773 80.5863 18.944C80.5863 18.368 80.2876 17.9413 79.6903 17.664C79.1143 17.3653 78.1863 17.0453 76.9062 16.704C75.5836 16.384 74.4956 16.0533 73.6423 15.712C72.8103 15.3707 72.0849 14.848 71.4663 14.144C70.8689 13.44 70.5703 12.4907 70.5703 11.296C70.5703 10.3147 70.8476 9.41867 71.4023 8.608C71.9783 7.79733 72.7889 7.15733 73.8343 6.688C74.9009 6.21867 76.1489 5.984 77.5783 5.984C79.6903 5.984 81.3756 6.51733 82.6343 7.584C83.8929 8.62933 84.5863 10.048 84.7143 11.84H80.4263C80.3623 11.136 80.0636 10.5813 79.5303 10.176C79.0183 9.74933 78.3249 9.536 77.4503 9.536C76.6396 9.536 76.0103 9.68533 75.5623 9.984C75.1356 10.2827 74.9223 10.6987 74.9223 11.232C74.9223 11.8293 75.2209 12.288 75.8183 12.608C76.4156 12.9067 77.3436 13.216 78.6023 13.536C79.8823 13.856 80.9383 14.1867 81.7703 14.528C82.6023 14.8693 83.3169 15.4027 83.9143 16.128C84.5329 16.832 84.8529 17.7707 84.8743 18.944C84.8743 19.968 84.5863 20.8853 84.0103 21.696C83.4556 22.5067 82.6449 23.1467 81.5783 23.616C80.5329 24.064 79.3063 24.288 77.8983 24.288ZM93.7678 9.952V18.528C93.7678 19.1253 93.9064 19.5627 94.1838 19.84C94.4824 20.096 94.9731 20.224 95.6558 20.224H97.7358V24H94.9198C91.1438 24 89.2558 22.1653 89.2558 18.496V9.952H87.1438V6.272H89.2558V1.888H93.7678V6.272H97.7358V9.952H93.7678ZM117.918 6.272L106.942 32.384H102.174L106.014 23.552L98.91 6.272H103.934L108.51 18.656L113.15 6.272H117.918ZM124.813 0.32V24H120.333V0.32H124.813ZM145.719 14.752C145.719 15.392 145.677 15.968 145.591 16.48H132.631C132.738 17.76 133.186 18.7627 133.975 19.488C134.765 20.2133 135.735 20.576 136.887 20.576C138.551 20.576 139.735 19.8613 140.439 18.432H145.271C144.759 20.1387 143.778 21.5467 142.327 22.656C140.877 23.744 139.095 24.288 136.983 24.288C135.277 24.288 133.741 23.9147 132.375 23.168C131.031 22.4 129.975 21.3227 129.207 19.936C128.461 18.5493 128.087 16.9493 128.087 15.136C128.087 13.3013 128.461 11.6907 129.207 10.304C129.954 8.91733 130.999 7.85067 132.343 7.104C133.687 6.35733 135.234 5.984 136.983 5.984C138.669 5.984 140.173 6.34667 141.495 7.072C142.839 7.79733 143.874 8.832 144.599 10.176C145.346 11.4987 145.719 13.024 145.719 14.752ZM141.079 13.472C141.058 12.32 140.642 11.4027 139.831 10.72C139.021 10.016 138.029 9.664 136.855 9.664C135.746 9.664 134.807 10.0053 134.039 10.688C133.293 11.3493 132.834 12.2773 132.663 13.472H141.079ZM150.973 24.224C150.163 24.224 149.491 23.9787 148.957 23.488C148.445 22.976 148.189 22.3467 148.189 21.6C148.189 20.8533 148.445 20.2347 148.957 19.744C149.491 19.232 150.163 18.976 150.973 18.976C151.763 18.976 152.413 19.232 152.925 19.744C153.437 20.2347 153.693 20.8533 153.693 21.6C153.693 22.3467 153.437 22.976 152.925 23.488C152.413 23.9787 151.763 24.224 150.973 24.224Z" fill="black"/>
</svg>
