<svg width="50" height="50" viewBox="0 0 50 50" fill="none" xmlns="http://www.w3.org/2000/svg">
<rect width="50" height="50" fill="#2F3C7E"/>
<g clip-path="url(#clip0_105_2)">
<path d="M17.6874 29.2L14.0163 14.8253H10V12.5659H15.7712L16.6366 15.9544L40 15.9377L37.5161 29.1999H17.6874V29.2ZM17.2135 18.2135L19.4424 26.9404H35.6406L37.2777 18.1992L17.2135 18.2135Z" fill="white"/>
<path d="M20.7804 37.4342C18.7881 37.4342 17.1672 35.8133 17.1672 33.8209C17.1672 31.8285 18.7881 30.2076 20.7804 30.2076H34.3939C36.3863 30.2076 38.0072 31.8285 38.0072 33.8209C38.0072 35.8133 36.3863 37.4342 34.3939 37.4342C32.4015 37.4342 30.7806 35.8133 30.7806 33.8209C30.7806 33.3424 30.8743 32.8855 31.044 32.4671H24.1303C24.3 32.8855 24.3938 33.3424 24.3938 33.8209C24.3937 35.8133 22.7728 37.4342 20.7804 37.4342ZM33.0401 33.8209C33.0401 34.5674 33.6474 35.1747 34.3939 35.1747C35.1404 35.1747 35.7477 34.5674 35.7477 33.8209C35.7477 33.0744 35.1404 32.4671 34.3939 32.4671C33.6474 32.4671 33.0401 33.0744 33.0401 33.8209ZM19.4266 33.8209C19.4266 34.5674 20.0339 35.1747 20.7804 35.1747C21.5269 35.1747 22.1342 34.5674 22.1342 33.8209C22.1342 33.0744 21.5269 32.4671 20.7804 32.4671C20.0339 32.4671 19.4266 33.0744 19.4266 33.8209Z" fill="white"/>
</g>
<defs>
<clipPath id="clip0_105_2">
<rect width="30" height="30" fill="white" transform="matrix(-1 0 0 1 40 10)"/>
</clipPath>
</defs>
</svg>
